<svg xmlns="http://www.w3.org/2000/svg" viewBox="0 0 900 560" role="img" aria-labelledby="title desc">
  <title id="title">Septic inspection request</title>
  <desc id="desc">Septic inspection request illustration with a checklist, magnifying glass, underground tank, and property details.</desc>
  <rect width="900" height="560" fill="#eef8f2"/>
  <path d="M0 385h900v175H0z" fill="#9d7448"/>
  <path d="M0 345c93-31 177-24 258-7s166 28 263 0 191-23 379 12v61H0z" fill="#72ad81"/>
  <g transform="translate(112 90)">
    <rect x="0" y="0" width="280" height="352" rx="24" fill="#fff" stroke="#17322b" stroke-width="8"/>
    <rect x="58" y="-16" width="164" height="48" rx="18" fill="#d9902f" stroke="#17322b" stroke-width="7"/>
    <path d="M62 92h152M62 152h152M62 212h128" stroke="#176b5b" stroke-width="13" stroke-linecap="round"/>
    <path d="m38 88 13 14 25-34M38 148l13 14 25-34M38 208l13 14 25-34" fill="none" stroke="#d9902f" stroke-width="8" stroke-linecap="round" stroke-linejoin="round"/>
  </g>
  <g transform="translate(448 106)">
    <circle cx="126" cy="126" r="94" fill="none" stroke="#176b5b" stroke-width="18"/>
    <path d="m195 195 102 102" stroke="#176b5b" stroke-width="24" stroke-linecap="round"/>
    <path d="M89 126h74M126 89v74" stroke="#d9902f" stroke-width="14" stroke-linecap="round"/>
  </g>
  <g transform="translate(402 424)">
    <rect x="0" y="0" width="342" height="70" rx="35" fill="#d7e6df" stroke="#17322b" stroke-width="7"/>
    <rect x="39" y="-20" width="86" height="28" rx="14" fill="#d7e6df" stroke="#17322b" stroke-width="6"/>
    <path d="M150 34h144" stroke="#176b5b" stroke-width="10" stroke-linecap="round" opacity=".6"/>
  </g>
</svg>
