<svg xmlns="http://www.w3.org/2000/svg" viewBox="0 0 900 560" role="img" aria-labelledby="title desc">
  <title id="title">Septic tank pumping in Perris CA</title>
  <desc id="desc">A clean illustration of a residential property, septic service vehicle, underground tank, and hose for septic tank pumping requests in Perris California.</desc>
  <defs>
    <linearGradient id="sky" x1="0" x2="0" y1="0" y2="1"><stop stop-color="#dff4ee"/><stop offset="1" stop-color="#f7fbf8"/></linearGradient>
    <linearGradient id="soil" x1="0" x2="1"><stop stop-color="#c49155"/><stop offset="1" stop-color="#8e623c"/></linearGradient>
  </defs>
  <rect width="900" height="560" fill="url(#sky)"/>
  <circle cx="720" cy="92" r="42" fill="#f2ba62" opacity=".85"/>
  <path d="M0 305c110-48 204-44 309-17s208 29 313 2 191-28 278 9v261H0z" fill="#b9dcc9"/>
  <path d="M0 386h900v174H0z" fill="url(#soil)"/>
  <path d="M74 385c105-20 209-25 313-8s200 21 307 2 165-14 206 3v49H0v-34c20-4 45-8 74-12z" fill="#69a878"/>
  <g transform="translate(89 193)">
    <path d="M36 74 166 0l130 74v118H36z" fill="#fff" stroke="#d6e4dd" stroke-width="6"/>
    <path d="M20 83 166-3l146 86" fill="none" stroke="#176b5b" stroke-width="16" stroke-linecap="round"/>
    <rect x="82" y="114" width="56" height="78" rx="4" fill="#d9902f"/>
    <rect x="176" y="110" width="64" height="46" rx="4" fill="#dff4ee" stroke="#176b5b" stroke-width="5"/>
  </g>
  <g transform="translate(482 261)">
    <rect x="0" y="54" width="252" height="84" rx="16" fill="#fff" stroke="#17322b" stroke-width="7"/>
    <path d="M32 54h129l32-42h59v42" fill="#f6fbf8" stroke="#17322b" stroke-width="7" stroke-linejoin="round"/>
    <rect x="18" y="74" width="82" height="26" rx="5" fill="#176b5b"/>
    <text x="30" y="94" fill="#fff" font-family="Arial, sans-serif" font-size="18" font-weight="700">SEPTIC</text>
    <circle cx="60" cy="144" r="25" fill="#17322b"/><circle cx="60" cy="144" r="11" fill="#d7e6df"/>
    <circle cx="205" cy="144" r="25" fill="#17322b"/><circle cx="205" cy="144" r="11" fill="#d7e6df"/>
    <path d="M15 54h-57c-28 0-51 23-51 51v63" fill="none" stroke="#0f4d41" stroke-width="14" stroke-linecap="round"/>
  </g>
  <g transform="translate(235 424)">
    <rect x="0" y="0" width="350" height="70" rx="35" fill="#d7e6df" stroke="#17322b" stroke-width="7"/>
    <rect x="45" y="-22" width="94" height="30" rx="15" fill="#d7e6df" stroke="#17322b" stroke-width="6"/>
    <path d="M145 34h170" stroke="#176b5b" stroke-width="10" stroke-linecap="round" opacity=".6"/>
  </g>
</svg>
