<svg xmlns="http://www.w3.org/2000/svg" viewBox="0 0 900 560" role="img" aria-labelledby="title desc">
  <title id="title">Septic service request in Perris</title>
  <desc id="desc">Residential Perris area septic service request visual with a home, clipboard, phone, and local property landscape.</desc>
  <rect width="900" height="560" fill="#eef8f2"/>
  <path d="M0 338c88-44 168-42 240-18s140 24 215 4 165-44 256-18 142 24 189 7v247H0z" fill="#8fc39d"/>
  <g transform="translate(90 180)">
    <rect x="0" y="83" width="260" height="160" rx="10" fill="#fff" stroke="#d7e6df" stroke-width="6"/>
    <path d="M-18 96 130 0l148 96" fill="none" stroke="#176b5b" stroke-width="18" stroke-linecap="round"/>
    <rect x="42" y="135" width="58" height="108" rx="5" fill="#d9902f"/>
    <rect x="138" y="126" width="70" height="58" rx="5" fill="#dff4ee" stroke="#176b5b" stroke-width="6"/>
  </g>
  <g transform="translate(426 102)">
    <rect x="0" y="0" width="300" height="380" rx="24" fill="#fff" stroke="#17322b" stroke-width="8"/>
    <rect x="70" y="-18" width="160" height="54" rx="20" fill="#d9902f" stroke="#17322b" stroke-width="7"/>
    <text x="53" y="95" fill="#17322b" font-family="Arial, sans-serif" font-size="34" font-weight="800">REQUEST</text>
    <path d="M55 142h190M55 196h190M55 250h145" stroke="#176b5b" stroke-width="14" stroke-linecap="round"/>
    <circle cx="62" cy="315" r="27" fill="#176b5b"/>
    <path d="m50 315 10 11 20-25" fill="none" stroke="#fff" stroke-width="8" stroke-linecap="round" stroke-linejoin="round"/>
  </g>
  <g transform="translate(678 310)">
    <rect x="0" y="0" width="90" height="150" rx="18" fill="#17322b"/>
    <rect x="11" y="18" width="68" height="100" rx="8" fill="#dff4ee"/>
    <circle cx="45" cy="133" r="7" fill="#fff"/>
  </g>
</svg>
